<?xml version="1.0" ?><svg fill="none" height="24" viewBox="0 0 24 24" width="24" xmlns="http://www.w3.org/2000/svg"><path clip-rule="evenodd" d="M1.5 6.5C1.5 3.73858 3.73858 1.5 6.5 1.5H17.5C20.2614 1.5 22.5 3.73858 22.5 6.5V17.5C22.5 20.2614 20.2614 22.5 17.5 22.5H6.5C3.73858 22.5 1.5 20.2614 1.5 17.5V6.5ZM6.5 2.5C4.29086 2.5 2.5 4.29086 2.5 6.5V17.5C2.5 19.7091 4.29086 21.5 6.5 21.5H17.5C19.7091 21.5 21.5 19.7091 21.5 17.5V6.5C21.5 4.29086 19.7091 2.5 17.5 2.5H6.5Z" fill="black" fill-rule="evenodd"/><path clip-rule="evenodd" d="M12 7.5C9.51472 7.5 7.5 9.51472 7.5 12C7.5 14.4853 9.51472 16.5 12 16.5C14.4853 16.5 16.5 14.4853 16.5 12C16.5 9.51472 14.4853 7.5 12 7.5ZM6.5 12C6.5 8.96243 8.96243 6.5 12 6.5C15.0376 6.5 17.5 8.96243 17.5 12C17.5 15.0376 15.0376 17.5 12 17.5C8.96243 17.5 6.5 15.0376 6.5 12Z" fill="black" fill-rule="evenodd"/><path clip-rule="evenodd" d="M18 5.5C17.7239 5.5 17.5 5.72386 17.5 6C17.5 6.27614 17.7239 6.5 18 6.5C18.2761 6.5 18.5 6.27614 18.5 6C18.5 5.72386 18.2761 5.5 18 5.5ZM16.5 6C16.5 5.17157 17.1716 4.5 18 4.5C18.8284 4.5 19.5 5.17157 19.5 6C19.5 6.82843 18.8284 7.5 18 7.5C17.1716 7.5 16.5 6.82843 16.5 6Z" fill="black" fill-rule="evenodd"/></svg>