<?xml version="1.0" encoding="utf-8"?>
<!-- Generator: Adobe Illustrator 23.0.5, SVG Export Plug-In . SVG Version: 6.00 Build 0)  -->
<svg version="1.1" id="Capa_1" xmlns="http://www.w3.org/2000/svg" xmlns:xlink="http://www.w3.org/1999/xlink" x="0px" y="0px"
	 width="714px" height="579px" viewBox="0 0 714 579" style="enable-background:new 0 0 714 579;" xml:space="preserve">
<style type="text/css">
	.st0{fill-rule:evenodd;clip-rule:evenodd;fill:#0F7D7C;}
	.st1{fill-rule:evenodd;clip-rule:evenodd;fill:#FFFFFF;}
	.st2{fill:none;stroke:#FFFFFF;}
	.st3{fill-rule:evenodd;clip-rule:evenodd;fill:#FCD07F;}
	.st4{fill-rule:evenodd;clip-rule:evenodd;fill:#00605F;}
	.st5{fill-rule:evenodd;clip-rule:evenodd;fill:#FEFCF8;}
	.st6{fill-rule:evenodd;clip-rule:evenodd;fill:#EAEAE8;}
	.st7{fill-rule:evenodd;clip-rule:evenodd;fill:#D6D6CE;}
	.st8{fill-rule:evenodd;clip-rule:evenodd;fill:#9EC79B;}
	.st9{fill:none;stroke:#C8E5C6;}
	.st10{fill-rule:evenodd;clip-rule:evenodd;fill:#779574;}
	.st11{fill:none;stroke:#B0B0AE;}
	.st12{fill:none;stroke:#FFFFFF;stroke-width:2;}
	.st13{fill-rule:evenodd;clip-rule:evenodd;fill:#213E6E;}
	.st14{fill-rule:evenodd;clip-rule:evenodd;fill:#5A7968;}
	.st15{fill-rule:evenodd;clip-rule:evenodd;fill:#F29683;}
	.st16{fill-rule:evenodd;clip-rule:evenodd;fill:#C8E5C6;}
	.st17{fill-rule:evenodd;clip-rule:evenodd;fill:#18254B;}
	.st18{fill-rule:evenodd;clip-rule:evenodd;fill:#0E172D;}
	.st19{fill-rule:evenodd;clip-rule:evenodd;fill:#FFC5C5;}
	.st20{fill:none;stroke:#0055FF;}
	.st21{fill-rule:evenodd;clip-rule:evenodd;fill:#0055FF;}
	.st22{fill:none;stroke:#F29683;}
	.st23{fill:none;stroke:#18254B;}
	.st24{fill:none;stroke:#18254B;stroke-width:2;}
	.st25{fill:none;stroke:#FCD07F;}
	.st26{fill-rule:evenodd;clip-rule:evenodd;fill:#94BC88;}
	.st27{fill:none;stroke:#264534;}
	.st28{fill:none;stroke:#F29683;stroke-width:2;}
	.st29{fill-rule:evenodd;clip-rule:evenodd;fill:#FFD480;}
</style>
<path class="st0" d="M531.4,538.1c0,0,85.9-32.3,66-189.1c-14.8-116.3-114-33.2-163.5-116.1c-49.5-83-84.4-312.9-178.5-171.5
	c-78.1,117.4-57.6,480,120.9,480S531.4,538.1,531.4,538.1"/>
<path class="st1" d="M153.6,496.8c-15.3,0-27.7,3.5-27.7,6.5h55.4C181.3,500.3,168.9,496.8,153.6,496.8"/>
<path class="st2" d="M153.6,496.8c-15.3,0-27.7,3.5-27.7,6.5h55.4C181.3,500.3,168.9,496.8,153.6,496.8L153.6,496.8z"/>
<path class="st3" d="M216.8,410.6c0,0-62.1,18.1-59,46.8C174.6,470.2,213,423.4,216.8,410.6 M153,376.4c0,0,58.9-7.9,79.9-75.3
	C175.3,305.2,139,345,153,376.4 M48.3,379.7c0,0,62.7-19.3,89.6,36.3C122.2,445.2,48.3,379.7,48.3,379.7 M135.6,477.1
	c0,0-4.5-36.4-45.5-43.7C91.6,467.4,118.1,480.7,135.6,477.1"/>
<path class="st2" d="M205.3,323.8c0,0-84,11-49.3,175 M194.3,425.6c0,0-29.2,14.2-45.5,41.3 M90.4,389.1c0,0,38.7,7.5,58.2,47.7
	 M102.3,447c0,0,20.2,26.9,47.9,35.4"/>
<path class="st3" d="M140.2,372.2c0,0-4.3-35.3-44.1-42.3C97.5,362.8,123.2,375.7,140.2,372.2"/>
<path class="st2" d="M107.9,343c0,0,19.6,26,46.4,34.3"/>
<path class="st4" d="M188.8,554.7c0,0-89.9-21.7-83.1-62C130.5,476,183.8,537.7,188.8,554.7"/>
<path class="st4" d="M188.8,554.7c0,0-67.7-47-48.4-83.1C169.3,463.6,190.6,535.9,188.8,554.7"/>
<path class="st4" d="M187.2,552.6c0,0-34.3-61.5-1.3-85.6C215.4,472.5,197,536.5,187.2,552.6"/>
<path class="st4" d="M188.8,554.7c0,0-8.2-58.9,31-70.5C238.1,505.6,203.4,542.8,188.8,554.7 M188.8,554.7c0,0-63.8-52.5-93.3-24.1
	C95.7,560.6,171.2,561.6,188.8,554.7"/>
<path class="st3" d="M293.1,514.7c0,0,2.2,27.4,1.8,29.8s-1,15-4,16c-3.5,0.4-84.7,8.6-105.9,4.2c-5.4-8.2-4.3-19.8,4.6-23.8
	c8.9-4,50.2-26.4,68.8-39.5C277,488.3,293.1,514.7,293.1,514.7"/>
<path class="st5" d="M261.3,523.3c0,8,6.5,14.5,14.5,14.5s14.5-6.5,14.5-14.5s-6.5-14.5-14.5-14.5S261.3,515.3,261.3,523.3"/>
<path class="st3" d="M316.4,445.6c0,0,23.7,10.2,25.5,11.6c1.8,1.5,14.2,6.4,13.4,8c-1.4,3.4-32.2,76-46,93.1
	c-9.5,1.1-9.8-2.1-8.8-11.8s7-58.2,5.1-80.7C303.6,443.4,316.4,445.6,316.4,445.6"/>
<path class="st5" d="M314.3,473.3c0,8,6.5,14.5,14.5,14.5s14.5-6.5,14.5-14.5s-6.5-14.5-14.5-14.5S314.3,465.3,314.3,473.3"/>
<path class="st3" d="M335.7,477.6l-3.3,5.5l-13.4-8l3.2-5.5c1.5-2.6,4-3.4,6.1-2.2c1.2,0.7,1.9,2,1.8,3.6c1.5-1.1,3.2-1.3,4.6-0.4
	C337,472,337.4,474.8,335.7,477.6"/>
<path class="st6" d="M234.4,260.2l15.1-13.5c3.2-2.8,8-2.6,10.9,0.6l0,0l80.5,90.2c0,0-23.8,80.1-61.9,10.3
	c-29.9-54.8-41.7-76.3-45.4-83.1C232.7,263.2,233.1,261.3,234.4,260.2"/>
<path class="st7" d="M263.6,298.1c0,0,4.1-2.4,14.2,8.3c10.1,10.7,22.5,23.7,22.5,23.7l-6.5,20.1l-7.1,1.3
	C286.7,351.5,251.2,292.7,263.6,298.1"/>
<path class="st8" d="M525.2,297.2c0,0,32.9-72.9,23.6-91.8c-9.3-18.9-220.3-18-242.1-4.6c-21.8,13.4,4.4,90.2,7.4,90.1
	C317.1,291,525.2,297.2,525.2,297.2"/>
<path class="st9" d="M524.3,205.8c0,0-94-22-209.3,0.7"/>
<path class="st10" d="M517.3,238.8c0,0,10.5-32.7,21-33s9,35-9,70C511.3,279.8,517.3,238.8,517.3,238.8"/>
<path class="st6" d="M281.4,399.4c0,0,26.9-152.6,59.5-177.8c11.6-9,63.5-39.7,154.7-7.9c5.3,4.6-20.5,142.1-33.1,157.3
	C449.9,386.2,281.4,399.4,281.4,399.4"/>
<path class="st7" d="M430.3,334.8l26-73l19,75L430.3,334.8z"/>
<path class="st6" d="M481.3,227.8c0,0-75,6.8-135-2.3"/>
<path class="st11" d="M481.3,227.8c0,0-75,6.8-135-2.3"/>
<path class="st6" d="M484.3,213c0,0-75-9-135,3"/>
<path class="st11" d="M484.3,213c0,0-75-9-135,3"/>
<path class="st6" d="M465.3,328.8c0,0-73,11-139-6"/>
<path class="st11" d="M465.3,328.8c0,0-73,11-139-6"/>
<path class="st7" d="M331.8,249.3L292.9,349l16.9-5.7L331.8,249.3z"/>
<path class="st12" d="M340.3,234.8c0,0-17.5,45.5-25,85.5"/>
<path class="st13" d="M691.2,431.2c-3.5-0.6-7.1-1.7-11-3.6c5.1-5.8,10.8-9.6,16.2-11.6c5.3-18.4,8.4-39.4,8.1-62.2
	c-33.5,14.8-58.6,42.5-73.1,64.3c0.8,5.6,0.8,23.5-1.6,28c-3.1-4.5-5.4-9.1-6.9-13.7c-15,31.2-16.2,57.9-16.2,57.9
	C638.4,503,672.8,477.8,691.2,431.2"/>
<path class="st14" d="M684.1,496.7c-2.4-1.3-4.9-3.1-7.3-5.5c5.2-3,10.4-4.5,15-4.6c8.6-12.4,16.1-27.3,21.7-44.4
	c-28.8,2.7-54.4,17-70.7,29.7c-0.8,4.4-5.3,17.7-8.2,20.5c-1.2-4.1-1.7-8.2-1.7-12c-19,19.6-26.6,39.2-26.6,39.2
	C626.7,537.1,658.7,526.9,684.1,496.7"/>
<path class="st8" d="M655.1,401.1c-4.4,1.4-9.3,2.3-15,2.5c2.5-9.7,6.9-17.5,12.1-23.1c-4.6-24.2-13.4-50-27.1-75.9
	c-30.4,37.2-43.3,83.9-47.4,117.5c4.3,6,14.7,26.3,14.7,32.9c-6.3-3.2-11.7-7.2-16.1-11.5c0.9,44.7,15.2,75.8,15.2,75.8
	C635.9,515,661.2,465.5,655.1,401.1"/>
<path class="st15" d="M541.2,548.4c0,0,11.7-38.6,29.3-44.9c17.7-6.3,31.8,29.7,53.7,20.2c21.9-9.6,37.8-3.1,53.3,11.5
	C636.1,552.9,541.2,548.4,541.2,548.4"/>
<path class="st4" d="M497.1,451.4c0,0,90.2,51.6,74.5,95.3C540.5,560.3,498.1,472.7,497.1,451.4"/>
<path class="st4" d="M557.1,426.8c0,0,51.8,83,17.3,116.9C541.3,543.8,547.7,446.8,557.1,426.8"/>
<path class="st4" d="M634.1,454.2c0,0-22.7,94.5-66.8,92.1C546.4,522.1,614.8,460.9,634.1,454.2"/>
<path class="st4" d="M655.6,498.1c0,0-61.7,65.3-93.5,45.1C557.2,515.3,638.4,495.4,655.6,498.1"/>
<path class="st4" d="M470.8,512.3c0,0,85.6-15.2,105.3,27.3C568,568.1,485.1,528.1,470.8,512.3"/>
<path class="st3" d="M417.2,425.6l17.9,131.3c0.3,2.4-1.4,4.6-3.7,4.9c-2.2,0.3-4.3-1.1-4.8-3.3l-32.5-131.6
	c-0.7-2.8,1.5-5.4,4.3-5.4l14.6,0.3C415.1,421.9,416.9,423.5,417.2,425.6 M457,426.3l18.3,126.5c0.4,2.9-1.6,5.5-4.4,5.9
	c-2.7,0.4-5.2-1.3-5.8-3.9L434,428c-0.8-3.3,1.8-6.6,5.2-6.5l12.7,0.3C454.5,421.9,456.6,423.8,457,426.3"/>
<path class="st15" d="M445.1,472.8h18.7l-5.4-37h-22.5L445.1,472.8z M405.9,472.8h17.8l-5.4-37h-21.6L405.9,472.8z"/>
<path class="st15" d="M436.1,561.4l-12.4-88.6l-5.4-37h-9.6L436.1,561.4z M476.2,561.4l-12.4-88.6l-5.4-37h-9.6L476.2,561.4z"/>
<path class="st8" d="M350.5,439.3h116c7.1,0,13.5-4.4,16.1-11l19.2-50c4.8-12.5-5.9-25.5-19.1-23.1L348.1,379
	c-8.1,1.4-14,8.4-14.2,16.5l-0.6,26.1C333.1,431.4,340.9,439.3,350.5,439.3"/>
<path class="st10" d="M480.5,424.7c0,0-21.2-17.4-24-26.6s39.8-13.8,39.8-13.8L480.5,424.7z"/>
<path class="st16" d="M347.6,433.1c0,0,63.1,4.2,84.4-8.5s18.9-18.9,18.9-27.5s24-10.7,24-10.7l-15.7-8.5l-96.3,36.5L347.6,433.1
	L347.6,433.1z"/>
<path class="st17" d="M314.1,344.9c0,0-99.7,19.1-113.2,22.3c-13.6,3.2-59.8,32.7-36.7,60.6s103.1,58.9,103.1,58.9L314.1,344.9
	L314.1,344.9z"/>
<path class="st18" d="M283.1,357.5l-58.8,106.8c29.9,17.9,41.2,21.9,41.2,21.9L300.9,354C295.6,355.1,289.5,356.2,283.1,357.5"/>
<path class="st17" d="M263.8,499.3c0,0,22.9-140.5,32.9-163s39.2-28.3,71.7-10s90.8,51.7,90.8,51.7s-18.6,2.6-22.5,22.5
	c-3.5,17.9-32.4,21.7-78.3,21.7l-66.1,95L263.8,499.3L263.8,499.3z"/>
<path class="st18" d="M365.5,364.9l-88.6,141.5c0,0,0.7,1.1,1.9,2.9l13.5,7.7l66.1-95c46,0,74.8-3.7,78.3-21.7
	c0.2-1.1,0.5-2.1,0.8-3.1l-58.6-35.5C374.3,359.1,368.4,360.5,365.5,364.9"/>
<path class="st19" d="M432.9,201.6c0,0-44.5-75.2-55.8-78.4c-11.3-3.1-23.8,3.8-25.7,12.5c-1.9,8.8,19.4,95.9,28.2,104
	C388.4,248,409.1,246.7,432.9,201.6 M452,341.6c0,0-44.3-3.8-55,0.6c18.7,10.7,45.1,25.8,45.1,25.8S462.4,350.7,452,341.6"/>
<path class="st20" d="M287.3,514.1L369,381.9c2.3-3.8,7.2-5.2,11.1-3.2l51.8,25.9 M274,415.8l-37.4-11.6 M242.6,402l0.9,4.2"/>
<path class="st6" d="M452,341.6c0,0,7.9,6.6-9.9,26.4c25.8,14.5,64.8,37.7,74,43c9.3,5.3,41.6,11.2,45.6-31.7
	c4-43-38.3-159-67.4-162.3c-12.6,63.5-24.5,129.2-24.5,129.2L452,341.6L452,341.6z"/>
<path class="st12" d="M452,341.6c11.8,1.5,64.1,8.3,64.1,8.3l-20.7-3.2c-40.8-28.2,2.7-2.7,2.7-2.7 M489.3,218.8c0,0-15,11-21,57"/>
<path class="st15" d="M237.5,239.3c0,0-38.6-15.5-40.1-15.2s-2.6,1.7-1.1,3.5s16.9,13.2,16.9,13.2L237.5,239.3L237.5,239.3z"/>
<path class="st19" d="M189.3,235.8c7.1,0,57,0,62,9c1,6.5-15.8,17.2-17.8,16.2s-55.3-19.3-55.3-19.3S171.3,235.8,189.3,235.8"/>
<path class="st17" d="M367.9,160.7c0,1.6,1,2.8,2.2,2.8s2.2-1.3,2.2-2.8c0-1.6-1-2.8-2.2-2.8S367.9,159.2,367.9,160.7 M352.9,163.7
	c0,1.6,1,2.8,2.2,2.8s2.2-1.3,2.2-2.8c0-1.6-1-2.8-2.2-2.8S352.9,162.2,352.9,163.7"/>
<path class="st15" d="M371.4,186.5l-6.4,1.3l-6.8-0.5l2-21.5L371.4,186.5z"/>
<path class="st19" d="M397.6,150.5c0,0,4.7-6,12-6s10.7,16,1.3,22C400.3,163.8,397.6,150.5,397.6,150.5"/>
<path class="st12" d="M449.3,338.8l57,4.5"/>
<path class="st17" d="M397.6,150.5c0,0-13.9-14.7-18.1-19.2c-3.8-4-13.8,3.4-17.3,5.2c-8,4-14.7,2-20-1.3s4.7-2,10.7-10
	s32.9-29.8,47.6,22.2C403.3,157.8,397.6,150.5,397.6,150.5"/>
<path class="st21" d="M183.3,553.8l112-7l-4.3,13.7c-9.7,2.3-100.7,7.1-105.9,4.2C179.8,561.8,183.3,553.8,183.3,553.8"/>
<path class="st6" d="M476.3,261.8c0,0-75,9-135-3"/>
<path class="st11" d="M476.3,261.8c0,0-75,9-135-3"/>
<path class="st6" d="M473.3,245.8c0,0-75,9-135-3"/>
<path class="st11" d="M473.3,245.8c0,0-75,9-135-3"/>
<path class="st6" d="M466.3,276.8c0,0-75,9-135-3"/>
<path class="st11" d="M466.3,276.8c0,0-75,9-135-3"/>
<path class="st6" d="M466.3,294.5c0,0-75.2,7.1-134.9-6.4"/>
<path class="st11" d="M466.3,294.5c0,0-75.2,7.1-134.9-6.4"/>
<path class="st6" d="M462.3,311.8c0,0-75,9-135-3"/>
<path class="st11" d="M462.3,311.8c0,0-75,9-135-3"/>
<path class="st7" d="M451.1,360.8l97.4,40.7c0,0-9.5,11.3-21.7,11.3c-19.9-10.4-79.4-47.3-79.4-47.3L451.1,360.8L451.1,360.8z"/>
<path class="st22" d="M408.8,155.8c0,0,4.3,6.4-1.8,4.7c-3-0.8,4.8-9.2,4.8-9.2"/>
<path class="st15" d="M400.3,344.3l47,14.5l-5.2,9.2L400.3,344.3z"/>
<path class="st23" d="M340.3,140.5c1.3,0.3,10.3,3.7,19.3-2.3 M379.8,125.3c0,0,3.4,0.1,3.4-0.4S379.8,124.3,379.8,125.3z"/>
<path class="st21" d="M355.3,465l-46,93.4c9.7-0.6,10.8-0.8,10.8-0.8s39.6-66.3,41.2-88.3C359,465.5,355.3,465,355.3,465"/>
<path class="st19" d="M565.3,551.8c-1.9-5.9-3.7-11.9-5.6-17.8c-0.5-1.4-2-2.2-3.4-1.8c-0.2,0.1-0.5,0.2-0.7,0.3
	c-1.2,0.8-2.9,0.5-3.7-0.7c-0.1-0.1-0.1-0.2-0.1-0.2l-1.8-3.4c-1-1.9-3.7-1.9-4.7-0.1l-10.3,18c-0.3,0.5-1,0.7-1.5,0.5
	s-1.1-0.1-1.4,0.4l-3.2,4.5c-1.3,1.8,0,4.3,2.2,4.3l31.7-0.4c1.5,0,2.7-1.2,2.7-2.7C565.4,552.4,565.3,552.1,565.3,551.8"/>
<path class="st15" d="M523,549.4l9.6-3.4c1.4-0.5,3-0.3,4.2,0.5l5.1,3.4c3.9,2.6,2.1,8.7-2.6,8.7h-14.6c-1.3,0-2.5-0.5-3.3-1.4
	C518.8,554.8,519.8,550.6,523,549.4"/>
<path class="st15" d="M407.3,193.8l-40,20l11,5L407.3,193.8z"/>
<path class="st20" d="M376.3,373.3c0,0,2,4.2-2.8,13.5"/>
<path class="st24" d="M260.9,509.8l-53.3,32.7 M310.6,542.5l3-49.3"/>
<path class="st3" d="M715.9-192.1c0,1.4-1.2,2.6-2.6,2.6c-1.4,0-2.6-1.2-2.6-2.6c0-1.4,1.2-2.6,2.6-2.6
	C714.8-194.7,715.9-193.5,715.9-192.1 M681.8-144.1c0,1.9-1.6,3.5-3.5,3.5s-3.5-1.6-3.5-3.5s1.6-3.5,3.5-3.5S681.8-146,681.8-144.1"
	/>
<path class="st21" d="M979.8-154.1c0,1.9-1.6,3.5-3.5,3.5s-3.5-1.6-3.5-3.5s1.6-3.5,3.5-3.5S979.8-156,979.8-154.1"/>
<path class="st3" d="M705.5-127.1c0,1.2-1,2.2-2.2,2.2s-2.2-1-2.2-2.2c0-1.2,1-2.2,2.2-2.2C704.5-129.2,705.5-128.3,705.5-127.1
	 M877.5-238.1c0,1.2-1,2.2-2.2,2.2s-2.2-1-2.2-2.2s1-2.2,2.2-2.2C876.5-240.2,877.5-239.3,877.5-238.1 M957.5-195.1
	c0,1.2-1,2.2-2.2,2.2s-2.2-1-2.2-2.2l0,0c0-1.2,1-2.2,2.2-2.2C956.5-197.2,957.5-196.3,957.5-195.1"/>
<path class="st21" d="M914.5-138.1c0,1.2-1,2.2-2.2,2.2s-2.2-1-2.2-2.2l0,0c0-1.2,1-2.2,2.2-2.2
	C913.5-140.2,914.5-139.3,914.5-138.1 M927.5-119.1c0,1.2-1,2.2-2.2,2.2s-2.2-1-2.2-2.2l0,0c0-1.2,1-2.2,2.2-2.2
	C926.5-121.2,927.5-120.3,927.5-119.1 M1032.5-83.1c0,1.2-1,2.2-2.2,2.2s-2.2-1-2.2-2.2l0,0c0-1.2,1-2.2,2.2-2.2
	C1031.5-85.2,1032.5-84.3,1032.5-83.1 M970.5-32.1c0,1.2-1,2.2-2.2,2.2s-2.2-1-2.2-2.2l0,0c0-1.2,1-2.2,2.2-2.2
	C969.5-34.2,970.5-33.3,970.5-32.1"/>
<path class="st2" d="M277.3,246.8c0,0-16-42-95-37"/>
<path class="st25" d="M213.5,205.7c0,0-39-4.5-64.5,3"/>
<path class="st2" d="M278.3,231.8c0,0,12,15,15,36"/>
<path class="st26" d="M29.5,507.1c0,0,61.7,41.5,47,70.2C52.8,584.4,28.6,521.8,29.5,507.1"/>
<g transform="translate(0 553.009)">
	<path class="st26" d="M0,2.9c0,0,68.8-11.2,79.4,16.2C69.2,38.2,9.7,12.8,0,2.9"/>
</g>
<path class="st26" d="M75,494.7c0,0,31.2,55.3,7.6,72.5C61,564,68.2,505.9,75,494.7"/>
<path class="st26" d="M128.9,518.8c0,0-21.9,59.1-51.4,54.7C65.2,556.6,115.5,521.8,128.9,518.8"/>
<path class="st26" d="M139.7,546.2c0,0-47.7,42.7-68.1,27.3C70.9,554,127.8,543.5,139.7,546.2 M5.2,531.4c0,0,42.8,6.4,43.2,24.5
	C38.3,565.2,8.8,539.1,5.2,531.4"/>
<path class="st13" d="M511.3,514.4c0,0-8.5-5.7-11.8-2.7C496.1,514.8,504.7,520.2,511.3,514.4 M521.2,521.9c0,0-9.3-4.3-12.1-0.8
	C506.3,524.6,515.6,528.7,521.2,521.9 M534.3,532.6c0,0-10.5-4.8-13.6-0.9C517.6,535.7,528,540.2,534.3,532.6 M517.8,515.9
	c0,0-6-8.3-3.1-11.7C517.6,500.8,523.4,509.1,517.8,515.9 M525.9,525.9c0,0-2.8-9.9,1.2-12.1S533.5,521.5,525.9,525.9 M507.8,506.7
	c0,0-0.1-10.3-4.5-11.3C498.9,494.5,499.2,504.6,507.8,506.7"/>
<path class="st27" d="M506.1,505.2c0,0,11.5,16.6,28.2,27.4"/>
<path class="st21" d="M260.9,499.8l30.7,19.7l6-8.3l-33-17.7L260.9,499.8z"/>
<path class="st15" d="M631.3-152c-13.4,5.3-28.6-1.3-33.9-14.8c-5.3-13.4,1.3-28.6,14.8-33.9c0.8-0.3,1.6-0.6,2.5-0.8
	c-5.2-0.8-10.5-0.2-15.3,1.7c-15.4,6.1-23,23.5-17,38.9c6.1,15.4,23.5,23,38.9,17c4.9-1.9,9.2-5.1,12.4-9.2
	C632.9-152.7,632.1-152.3,631.3-152"/>
<path class="st28" d="M376.8,191.8l8-7"/>
<path class="st3" d="M276.9,531.1h-6.4v-15.6h6.4c3,0,5,1.7,5,4.1c0,1.4-0.8,2.7-2.2,3.4c1.7,0.7,2.7,2.1,2.7,3.8
	C282.4,529.3,280.2,531.1,276.9,531.1"/>
<path class="st29" d="M850.7-250.9c0,16.6-13.4,30-30,30s-30-13.4-30-30s13.4-30,30-30C837.2-280.9,850.7-267.4,850.7-250.9"/>
</svg>
